<mxfile host="app.diagrams.net" agent="Mozilla/5.0 (Windows NT 10.0; Win64; x64) AppleWebKit/537.36 (KHTML, like Gecko) Chrome/131.0.0.0 Safari/537.36 Edg/131.0.0.0" version="25.0.3" pages="2">
  <diagram name="Page-1" id="uw7urMl42E5tcrVaVIOS">
    <mxGraphModel dx="3420" dy="1373" grid="1" gridSize="10" guides="1" tooltips="1" connect="1" arrows="1" fold="1" page="1" pageScale="1" pageWidth="827" pageHeight="1169" math="0" shadow="0">
      <root>
        <mxCell id="0" />
        <mxCell id="1" parent="0" />
        <mxCell id="c4K4P2OYtK1ANyOnssvS-6" value="WaveFileWrapper" style="swimlane;html=1;fontStyle=1;align=center;verticalAlign=top;childLayout=stackLayout;horizontal=1;startSize=26;horizontalStack=0;resizeParent=1;resizeLast=0;collapsible=1;marginBottom=0;swimlaneFillColor=#ffffff;rounded=0;shadow=0;comic=0;labelBackgroundColor=none;strokeWidth=1;fillColor=none;fontFamily=Verdana;fontSize=12" parent="1" vertex="1">
          <mxGeometry x="260" y="250" width="360" height="320" as="geometry" />
        </mxCell>
        <mxCell id="c4K4P2OYtK1ANyOnssvS-7" value="+ nbrOfChannels: int" style="text;html=1;strokeColor=none;fillColor=none;align=left;verticalAlign=top;spacingLeft=4;spacingRight=4;whiteSpace=wrap;overflow=hidden;rotatable=0;points=[[0,0.5],[1,0.5]];portConstraint=eastwest;" parent="c4K4P2OYtK1ANyOnssvS-6" vertex="1">
          <mxGeometry y="26" width="360" height="26" as="geometry" />
        </mxCell>
        <mxCell id="c4K4P2OYtK1ANyOnssvS-9" value="+ samplesPerSecond: int" style="text;html=1;strokeColor=none;fillColor=none;align=left;verticalAlign=top;spacingLeft=4;spacingRight=4;whiteSpace=wrap;overflow=hidden;rotatable=0;points=[[0,0.5],[1,0.5]];portConstraint=eastwest;" parent="c4K4P2OYtK1ANyOnssvS-6" vertex="1">
          <mxGeometry y="52" width="360" height="26" as="geometry" />
        </mxCell>
        <mxCell id="c4K4P2OYtK1ANyOnssvS-10" value="+ bytesPerSample: int" style="text;html=1;strokeColor=none;fillColor=none;align=left;verticalAlign=top;spacingLeft=4;spacingRight=4;whiteSpace=wrap;overflow=hidden;rotatable=0;points=[[0,0.5],[1,0.5]];portConstraint=eastwest;" parent="c4K4P2OYtK1ANyOnssvS-6" vertex="1">
          <mxGeometry y="78" width="360" height="26" as="geometry" />
        </mxCell>
        <mxCell id="c4K4P2OYtK1ANyOnssvS-11" value="+ samples: int[][]" style="text;html=1;strokeColor=none;fillColor=none;align=left;verticalAlign=top;spacingLeft=4;spacingRight=4;whiteSpace=wrap;overflow=hidden;rotatable=0;points=[[0,0.5],[1,0.5]];portConstraint=eastwest;" parent="c4K4P2OYtK1ANyOnssvS-6" vertex="1">
          <mxGeometry y="104" width="360" height="26" as="geometry" />
        </mxCell>
        <mxCell id="c4K4P2OYtK1ANyOnssvS-12" value="" style="line;html=1;strokeWidth=1;fillColor=none;align=left;verticalAlign=middle;spacingTop=-1;spacingLeft=3;spacingRight=3;rotatable=0;labelPosition=right;points=[];portConstraint=eastwest;" parent="c4K4P2OYtK1ANyOnssvS-6" vertex="1">
          <mxGeometry y="130" width="360" height="8" as="geometry" />
        </mxCell>
        <mxCell id="ma_wL7EjjFO9Kif_n0pC-30" value="+ readAndParse(file: string | File): void" style="text;html=1;strokeColor=none;fillColor=none;align=left;verticalAlign=top;spacingLeft=4;spacingRight=4;whiteSpace=wrap;overflow=hidden;rotatable=0;points=[[0,0.5],[1,0.5]];portConstraint=eastwest;" vertex="1" parent="c4K4P2OYtK1ANyOnssvS-6">
          <mxGeometry y="138" width="360" height="26" as="geometry" />
        </mxCell>
        <mxCell id="ma_wL7EjjFO9Kif_n0pC-31" value="+ readFile(file: File): ArrayBuffer" style="text;html=1;strokeColor=none;fillColor=none;align=left;verticalAlign=top;spacingLeft=4;spacingRight=4;whiteSpace=wrap;overflow=hidden;rotatable=0;points=[[0,0.5],[1,0.5]];portConstraint=eastwest;" vertex="1" parent="c4K4P2OYtK1ANyOnssvS-6">
          <mxGeometry y="164" width="360" height="26" as="geometry" />
        </mxCell>
        <mxCell id="ma_wL7EjjFO9Kif_n0pC-29" value="+ fetchFile(file: String) ArrayBuffer" style="text;html=1;strokeColor=none;fillColor=none;align=left;verticalAlign=top;spacingLeft=4;spacingRight=4;whiteSpace=wrap;overflow=hidden;rotatable=0;points=[[0,0.5],[1,0.5]];portConstraint=eastwest;" vertex="1" parent="c4K4P2OYtK1ANyOnssvS-6">
          <mxGeometry y="190" width="360" height="26" as="geometry" />
        </mxCell>
        <mxCell id="ma_wL7EjjFO9Kif_n0pC-28" value="+ parseFile(arrayBuffer: ArrayBuffer): void" style="text;html=1;strokeColor=none;fillColor=none;align=left;verticalAlign=top;spacingLeft=4;spacingRight=4;whiteSpace=wrap;overflow=hidden;rotatable=0;points=[[0,0.5],[1,0.5]];portConstraint=eastwest;" vertex="1" parent="c4K4P2OYtK1ANyOnssvS-6">
          <mxGeometry y="216" width="360" height="26" as="geometry" />
        </mxCell>
        <mxCell id="ma_wL7EjjFO9Kif_n0pC-34" value="+ parseAndVerifyRiffChunk(view: DataView): void" style="text;html=1;strokeColor=none;fillColor=none;align=left;verticalAlign=top;spacingLeft=4;spacingRight=4;whiteSpace=wrap;overflow=hidden;rotatable=0;points=[[0,0.5],[1,0.5]];portConstraint=eastwest;" vertex="1" parent="c4K4P2OYtK1ANyOnssvS-6">
          <mxGeometry y="242" width="360" height="26" as="geometry" />
        </mxCell>
        <mxCell id="ma_wL7EjjFO9Kif_n0pC-33" value="+ parseAndVerifyFormatChunk(view: DataView): void" style="text;html=1;strokeColor=none;fillColor=none;align=left;verticalAlign=top;spacingLeft=4;spacingRight=4;whiteSpace=wrap;overflow=hidden;rotatable=0;points=[[0,0.5],[1,0.5]];portConstraint=eastwest;" vertex="1" parent="c4K4P2OYtK1ANyOnssvS-6">
          <mxGeometry y="268" width="360" height="26" as="geometry" />
        </mxCell>
        <mxCell id="ma_wL7EjjFO9Kif_n0pC-35" value="+ parseAndVerifyDataChunk(view: DataView): void" style="text;html=1;strokeColor=none;fillColor=none;align=left;verticalAlign=top;spacingLeft=4;spacingRight=4;whiteSpace=wrap;overflow=hidden;rotatable=0;points=[[0,0.5],[1,0.5]];portConstraint=eastwest;" vertex="1" parent="c4K4P2OYtK1ANyOnssvS-6">
          <mxGeometry y="294" width="360" height="26" as="geometry" />
        </mxCell>
        <mxCell id="PPgkQl7gHsRR7ZtD4mZf-1" value="InvalidDataChunkError" style="swimlane;html=1;fontStyle=1;align=center;verticalAlign=top;childLayout=stackLayout;horizontal=1;startSize=26;horizontalStack=0;resizeParent=1;resizeLast=0;collapsible=1;marginBottom=0;swimlaneFillColor=#ffffff;rounded=0;shadow=0;comic=0;labelBackgroundColor=none;strokeWidth=1;fillColor=none;fontFamily=Verdana;fontSize=12" parent="1" vertex="1">
          <mxGeometry x="780" y="430" width="220" height="34" as="geometry" />
        </mxCell>
        <mxCell id="PPgkQl7gHsRR7ZtD4mZf-7" value="" style="line;html=1;strokeWidth=1;fillColor=none;align=left;verticalAlign=middle;spacingTop=-1;spacingLeft=3;spacingRight=3;rotatable=0;labelPosition=right;points=[];portConstraint=eastwest;" parent="PPgkQl7gHsRR7ZtD4mZf-1" vertex="1">
          <mxGeometry y="26" width="220" height="8" as="geometry" />
        </mxCell>
        <mxCell id="PPgkQl7gHsRR7ZtD4mZf-12" value="InvalidFileError" style="swimlane;html=1;fontStyle=1;align=center;verticalAlign=top;childLayout=stackLayout;horizontal=1;startSize=26;horizontalStack=0;resizeParent=1;resizeLast=0;collapsible=1;marginBottom=0;swimlaneFillColor=#ffffff;rounded=0;shadow=0;comic=0;labelBackgroundColor=none;strokeWidth=1;fillColor=none;fontFamily=Verdana;fontSize=12" parent="1" vertex="1">
          <mxGeometry x="780" y="190" width="220" height="34" as="geometry" />
        </mxCell>
        <mxCell id="PPgkQl7gHsRR7ZtD4mZf-13" value="" style="line;html=1;strokeWidth=1;fillColor=none;align=left;verticalAlign=middle;spacingTop=-1;spacingLeft=3;spacingRight=3;rotatable=0;labelPosition=right;points=[];portConstraint=eastwest;" parent="PPgkQl7gHsRR7ZtD4mZf-12" vertex="1">
          <mxGeometry y="26" width="220" height="8" as="geometry" />
        </mxCell>
        <mxCell id="PPgkQl7gHsRR7ZtD4mZf-14" value="InvalidRiffChunkError" style="swimlane;html=1;fontStyle=1;align=center;verticalAlign=top;childLayout=stackLayout;horizontal=1;startSize=26;horizontalStack=0;resizeParent=1;resizeLast=0;collapsible=1;marginBottom=0;swimlaneFillColor=#ffffff;rounded=0;shadow=0;comic=0;labelBackgroundColor=none;strokeWidth=1;fillColor=none;fontFamily=Verdana;fontSize=12" parent="1" vertex="1">
          <mxGeometry x="780" y="266" width="220" height="34" as="geometry" />
        </mxCell>
        <mxCell id="PPgkQl7gHsRR7ZtD4mZf-15" value="" style="line;html=1;strokeWidth=1;fillColor=none;align=left;verticalAlign=middle;spacingTop=-1;spacingLeft=3;spacingRight=3;rotatable=0;labelPosition=right;points=[];portConstraint=eastwest;" parent="PPgkQl7gHsRR7ZtD4mZf-14" vertex="1">
          <mxGeometry y="26" width="220" height="8" as="geometry" />
        </mxCell>
        <mxCell id="PPgkQl7gHsRR7ZtD4mZf-16" value="InvalidFormatChunkError" style="swimlane;html=1;fontStyle=1;align=center;verticalAlign=top;childLayout=stackLayout;horizontal=1;startSize=26;horizontalStack=0;resizeParent=1;resizeLast=0;collapsible=1;marginBottom=0;swimlaneFillColor=#ffffff;rounded=0;shadow=0;comic=0;labelBackgroundColor=none;strokeWidth=1;fillColor=none;fontFamily=Verdana;fontSize=12" parent="1" vertex="1">
          <mxGeometry x="780" y="350" width="220" height="34" as="geometry" />
        </mxCell>
        <mxCell id="PPgkQl7gHsRR7ZtD4mZf-17" value="" style="line;html=1;strokeWidth=1;fillColor=none;align=left;verticalAlign=middle;spacingTop=-1;spacingLeft=3;spacingRight=3;rotatable=0;labelPosition=right;points=[];portConstraint=eastwest;" parent="PPgkQl7gHsRR7ZtD4mZf-16" vertex="1">
          <mxGeometry y="26" width="220" height="8" as="geometry" />
        </mxCell>
        <mxCell id="PPgkQl7gHsRR7ZtD4mZf-18" value="WaveFileWrapperError" style="swimlane;html=1;fontStyle=1;align=center;verticalAlign=top;childLayout=stackLayout;horizontal=1;startSize=26;horizontalStack=0;resizeParent=1;resizeLast=0;collapsible=1;marginBottom=0;swimlaneFillColor=#ffffff;rounded=0;shadow=0;comic=0;labelBackgroundColor=none;strokeWidth=1;fillColor=none;fontFamily=Verdana;fontSize=12" parent="1" vertex="1">
          <mxGeometry x="1023" y="310" width="220" height="34" as="geometry" />
        </mxCell>
        <mxCell id="PPgkQl7gHsRR7ZtD4mZf-19" value="" style="line;html=1;strokeWidth=1;fillColor=none;align=left;verticalAlign=middle;spacingTop=-1;spacingLeft=3;spacingRight=3;rotatable=0;labelPosition=right;points=[];portConstraint=eastwest;" parent="PPgkQl7gHsRR7ZtD4mZf-18" vertex="1">
          <mxGeometry y="26" width="220" height="8" as="geometry" />
        </mxCell>
        <mxCell id="PPgkQl7gHsRR7ZtD4mZf-20" value="" style="html=1;labelBackgroundColor=#ffffff;jettySize=auto;orthogonalLoop=1;fontSize=14;rounded=0;jumpStyle=gap;edgeStyle=orthogonalEdgeStyle;startArrow=none;endArrow=block;endFill=0;strokeWidth=1;" parent="1" source="PPgkQl7gHsRR7ZtD4mZf-12" target="PPgkQl7gHsRR7ZtD4mZf-18" edge="1">
          <mxGeometry width="48" height="48" relative="1" as="geometry">
            <mxPoint x="430" y="188" as="sourcePoint" />
            <mxPoint x="478" y="140" as="targetPoint" />
          </mxGeometry>
        </mxCell>
        <mxCell id="PPgkQl7gHsRR7ZtD4mZf-21" value="" style="html=1;labelBackgroundColor=#ffffff;jettySize=auto;orthogonalLoop=1;fontSize=14;rounded=0;jumpStyle=gap;edgeStyle=orthogonalEdgeStyle;startArrow=none;endArrow=block;endFill=0;strokeWidth=1;" parent="1" source="PPgkQl7gHsRR7ZtD4mZf-16" target="PPgkQl7gHsRR7ZtD4mZf-18" edge="1">
          <mxGeometry width="48" height="48" relative="1" as="geometry">
            <mxPoint x="1010" y="217" as="sourcePoint" />
            <mxPoint x="1340" y="326" as="targetPoint" />
          </mxGeometry>
        </mxCell>
        <mxCell id="PPgkQl7gHsRR7ZtD4mZf-22" value="" style="html=1;labelBackgroundColor=#ffffff;jettySize=auto;orthogonalLoop=1;fontSize=14;rounded=0;jumpStyle=gap;edgeStyle=orthogonalEdgeStyle;startArrow=none;endArrow=block;endFill=0;strokeWidth=1;" parent="1" source="PPgkQl7gHsRR7ZtD4mZf-14" target="PPgkQl7gHsRR7ZtD4mZf-18" edge="1">
          <mxGeometry width="48" height="48" relative="1" as="geometry">
            <mxPoint x="1020" y="227" as="sourcePoint" />
            <mxPoint x="1350" y="336" as="targetPoint" />
          </mxGeometry>
        </mxCell>
        <mxCell id="PPgkQl7gHsRR7ZtD4mZf-23" value="" style="html=1;labelBackgroundColor=#ffffff;jettySize=auto;orthogonalLoop=1;fontSize=14;rounded=0;jumpStyle=gap;edgeStyle=orthogonalEdgeStyle;startArrow=none;endArrow=block;endFill=0;strokeWidth=1;" parent="1" source="PPgkQl7gHsRR7ZtD4mZf-1" target="PPgkQl7gHsRR7ZtD4mZf-18" edge="1">
          <mxGeometry width="48" height="48" relative="1" as="geometry">
            <mxPoint x="1030" y="237" as="sourcePoint" />
            <mxPoint x="1360" y="346" as="targetPoint" />
          </mxGeometry>
        </mxCell>
        <mxCell id="PPgkQl7gHsRR7ZtD4mZf-24" value="&amp;lt;&amp;lt;throws&amp;gt;&amp;gt;" style="endArrow=open;startArrow=none;endFill=0;startFill=0;endSize=8;html=1;verticalAlign=bottom;dashed=1;labelBackgroundColor=none;rounded=0;edgeStyle=orthogonalEdgeStyle;" parent="1" source="c4K4P2OYtK1ANyOnssvS-6" target="PPgkQl7gHsRR7ZtD4mZf-12" edge="1">
          <mxGeometry x="-0.6492" y="-41" width="160" relative="1" as="geometry">
            <mxPoint x="420" y="580" as="sourcePoint" />
            <mxPoint x="580" y="580" as="targetPoint" />
            <Array as="points">
              <mxPoint x="670" y="332" />
              <mxPoint x="670" y="207" />
            </Array>
            <mxPoint x="40" y="-33" as="offset" />
          </mxGeometry>
        </mxCell>
        <mxCell id="PPgkQl7gHsRR7ZtD4mZf-25" value="" style="endArrow=open;startArrow=none;endFill=0;startFill=0;endSize=8;html=1;verticalAlign=bottom;dashed=1;labelBackgroundColor=none;rounded=0;edgeStyle=orthogonalEdgeStyle;" parent="1" source="c4K4P2OYtK1ANyOnssvS-6" target="PPgkQl7gHsRR7ZtD4mZf-14" edge="1">
          <mxGeometry x="-0.6712" y="12" width="160" relative="1" as="geometry">
            <mxPoint x="550" y="342" as="sourcePoint" />
            <mxPoint x="790" y="217" as="targetPoint" />
            <Array as="points">
              <mxPoint x="670" y="332" />
              <mxPoint x="670" y="283" />
            </Array>
            <mxPoint as="offset" />
          </mxGeometry>
        </mxCell>
        <mxCell id="PPgkQl7gHsRR7ZtD4mZf-26" value="" style="endArrow=open;startArrow=none;endFill=0;startFill=0;endSize=8;html=1;verticalAlign=bottom;dashed=1;labelBackgroundColor=none;rounded=0;edgeStyle=orthogonalEdgeStyle;" parent="1" source="c4K4P2OYtK1ANyOnssvS-6" target="PPgkQl7gHsRR7ZtD4mZf-16" edge="1">
          <mxGeometry x="-0.6712" y="12" width="160" relative="1" as="geometry">
            <mxPoint x="550" y="342" as="sourcePoint" />
            <mxPoint x="790" y="293" as="targetPoint" />
            <Array as="points">
              <mxPoint x="670" y="330" />
              <mxPoint x="670" y="367" />
            </Array>
            <mxPoint as="offset" />
          </mxGeometry>
        </mxCell>
        <mxCell id="PPgkQl7gHsRR7ZtD4mZf-27" value="" style="endArrow=open;startArrow=none;endFill=0;startFill=0;endSize=8;html=1;verticalAlign=bottom;dashed=1;labelBackgroundColor=none;rounded=0;edgeStyle=orthogonalEdgeStyle;" parent="1" source="c4K4P2OYtK1ANyOnssvS-6" target="PPgkQl7gHsRR7ZtD4mZf-1" edge="1">
          <mxGeometry x="-0.6712" y="12" width="160" relative="1" as="geometry">
            <mxPoint x="560" y="352" as="sourcePoint" />
            <mxPoint x="800" y="303" as="targetPoint" />
            <Array as="points">
              <mxPoint x="670" y="330" />
              <mxPoint x="670" y="447" />
            </Array>
            <mxPoint as="offset" />
          </mxGeometry>
        </mxCell>
        <mxCell id="ma_wL7EjjFO9Kif_n0pC-1" value="FrameCollection" style="swimlane;html=1;fontStyle=1;align=center;verticalAlign=top;childLayout=stackLayout;horizontal=1;startSize=26;horizontalStack=0;resizeParent=1;resizeLast=0;collapsible=1;marginBottom=0;swimlaneFillColor=#ffffff;rounded=0;shadow=0;comic=0;labelBackgroundColor=none;strokeWidth=1;fillColor=none;fontFamily=Verdana;fontSize=12" vertex="1" parent="1">
          <mxGeometry x="260" y="630" width="550" height="320" as="geometry" />
        </mxCell>
        <mxCell id="ma_wL7EjjFO9Kif_n0pC-2" value="- frames: Frame[]" style="text;html=1;strokeColor=none;fillColor=none;align=left;verticalAlign=top;spacingLeft=4;spacingRight=4;whiteSpace=wrap;overflow=hidden;rotatable=0;points=[[0,0.5],[1,0.5]];portConstraint=eastwest;" vertex="1" parent="ma_wL7EjjFO9Kif_n0pC-1">
          <mxGeometry y="26" width="550" height="26" as="geometry" />
        </mxCell>
        <mxCell id="ma_wL7EjjFO9Kif_n0pC-3" value="- sampleCount: int" style="text;html=1;strokeColor=none;fillColor=none;align=left;verticalAlign=top;spacingLeft=4;spacingRight=4;whiteSpace=wrap;overflow=hidden;rotatable=0;points=[[0,0.5],[1,0.5]];portConstraint=eastwest;" vertex="1" parent="ma_wL7EjjFO9Kif_n0pC-1">
          <mxGeometry y="52" width="550" height="26" as="geometry" />
        </mxCell>
        <mxCell id="ma_wL7EjjFO9Kif_n0pC-4" value="- samplesPerSecond: int" style="text;html=1;strokeColor=none;fillColor=none;align=left;verticalAlign=top;spacingLeft=4;spacingRight=4;whiteSpace=wrap;overflow=hidden;rotatable=0;points=[[0,0.5],[1,0.5]];portConstraint=eastwest;" vertex="1" parent="ma_wL7EjjFO9Kif_n0pC-1">
          <mxGeometry y="78" width="550" height="26" as="geometry" />
        </mxCell>
        <mxCell id="ma_wL7EjjFO9Kif_n0pC-5" value="- frameDuration: float" style="text;html=1;strokeColor=none;fillColor=none;align=left;verticalAlign=top;spacingLeft=4;spacingRight=4;whiteSpace=wrap;overflow=hidden;rotatable=0;points=[[0,0.5],[1,0.5]];portConstraint=eastwest;" vertex="1" parent="ma_wL7EjjFO9Kif_n0pC-1">
          <mxGeometry y="104" width="550" height="26" as="geometry" />
        </mxCell>
        <mxCell id="ma_wL7EjjFO9Kif_n0pC-6" value="" style="line;html=1;strokeWidth=1;fillColor=none;align=left;verticalAlign=middle;spacingTop=-1;spacingLeft=3;spacingRight=3;rotatable=0;labelPosition=right;points=[];portConstraint=eastwest;" vertex="1" parent="ma_wL7EjjFO9Kif_n0pC-1">
          <mxGeometry y="130" width="550" height="8" as="geometry" />
        </mxCell>
        <mxCell id="ma_wL7EjjFO9Kif_n0pC-26" value="+ FrameCollection(samles: int[][], samplesPerSecond: int, nbrOfChannels: int, frameDuration: float)" style="text;html=1;strokeColor=none;fillColor=none;align=left;verticalAlign=top;spacingLeft=4;spacingRight=4;whiteSpace=wrap;overflow=hidden;rotatable=0;points=[[0,0.5],[1,0.5]];portConstraint=eastwest;" vertex="1" parent="ma_wL7EjjFO9Kif_n0pC-1">
          <mxGeometry y="138" width="550" height="26" as="geometry" />
        </mxCell>
        <mxCell id="ma_wL7EjjFO9Kif_n0pC-7" value="+ getFrames(): Frame[]" style="text;html=1;strokeColor=none;fillColor=none;align=left;verticalAlign=top;spacingLeft=4;spacingRight=4;whiteSpace=wrap;overflow=hidden;rotatable=0;points=[[0,0.5],[1,0.5]];portConstraint=eastwest;" vertex="1" parent="ma_wL7EjjFO9Kif_n0pC-1">
          <mxGeometry y="164" width="550" height="26" as="geometry" />
        </mxCell>
        <mxCell id="ma_wL7EjjFO9Kif_n0pC-8" value="+ getMappedDbaValues(dbaMin: int, dbaMax: int): int[]" style="text;html=1;strokeColor=none;fillColor=none;align=left;verticalAlign=top;spacingLeft=4;spacingRight=4;whiteSpace=wrap;overflow=hidden;rotatable=0;points=[[0,0.5],[1,0.5]];portConstraint=eastwest;" vertex="1" parent="ma_wL7EjjFO9Kif_n0pC-1">
          <mxGeometry y="190" width="550" height="26" as="geometry" />
        </mxCell>
        <mxCell id="ma_wL7EjjFO9Kif_n0pC-9" value="+ getFilteredDbaValues(threshold, dbaMin, dbaMax): int[]" style="text;html=1;strokeColor=none;fillColor=none;align=left;verticalAlign=top;spacingLeft=4;spacingRight=4;whiteSpace=wrap;overflow=hidden;rotatable=0;points=[[0,0.5],[1,0.5]];portConstraint=eastwest;" vertex="1" parent="ma_wL7EjjFO9Kif_n0pC-1">
          <mxGeometry y="216" width="550" height="26" as="geometry" />
        </mxCell>
        <mxCell id="ma_wL7EjjFO9Kif_n0pC-10" value="+ getSamplesPerSecond(): int" style="text;html=1;strokeColor=none;fillColor=none;align=left;verticalAlign=top;spacingLeft=4;spacingRight=4;whiteSpace=wrap;overflow=hidden;rotatable=0;points=[[0,0.5],[1,0.5]];portConstraint=eastwest;" vertex="1" parent="ma_wL7EjjFO9Kif_n0pC-1">
          <mxGeometry y="242" width="550" height="26" as="geometry" />
        </mxCell>
        <mxCell id="ma_wL7EjjFO9Kif_n0pC-11" value="+ getFrameDuration(): int" style="text;html=1;strokeColor=none;fillColor=none;align=left;verticalAlign=top;spacingLeft=4;spacingRight=4;whiteSpace=wrap;overflow=hidden;rotatable=0;points=[[0,0.5],[1,0.5]];portConstraint=eastwest;" vertex="1" parent="ma_wL7EjjFO9Kif_n0pC-1">
          <mxGeometry y="268" width="550" height="26" as="geometry" />
        </mxCell>
        <mxCell id="ma_wL7EjjFO9Kif_n0pC-12" value="- samplesToFrames(samples): Frame[]" style="text;html=1;strokeColor=none;fillColor=none;align=left;verticalAlign=top;spacingLeft=4;spacingRight=4;whiteSpace=wrap;overflow=hidden;rotatable=0;points=[[0,0.5],[1,0.5]];portConstraint=eastwest;" vertex="1" parent="ma_wL7EjjFO9Kif_n0pC-1">
          <mxGeometry y="294" width="550" height="26" as="geometry" />
        </mxCell>
        <mxCell id="ma_wL7EjjFO9Kif_n0pC-13" value="Frame" style="swimlane;html=1;fontStyle=1;align=center;verticalAlign=top;childLayout=stackLayout;horizontal=1;startSize=26;horizontalStack=0;resizeParent=1;resizeLast=0;collapsible=1;marginBottom=0;swimlaneFillColor=#ffffff;rounded=0;shadow=0;comic=0;labelBackgroundColor=none;strokeWidth=1;fillColor=none;fontFamily=Verdana;fontSize=12" vertex="1" parent="1">
          <mxGeometry x="895" y="705" width="410" height="170" as="geometry" />
        </mxCell>
        <mxCell id="ma_wL7EjjFO9Kif_n0pC-14" value="- samples: int[][]" style="text;html=1;strokeColor=none;fillColor=none;align=left;verticalAlign=top;spacingLeft=4;spacingRight=4;whiteSpace=wrap;overflow=hidden;rotatable=0;points=[[0,0.5],[1,0.5]];portConstraint=eastwest;" vertex="1" parent="ma_wL7EjjFO9Kif_n0pC-13">
          <mxGeometry y="26" width="410" height="26" as="geometry" />
        </mxCell>
        <mxCell id="ma_wL7EjjFO9Kif_n0pC-18" value="" style="line;html=1;strokeWidth=1;fillColor=none;align=left;verticalAlign=middle;spacingTop=-1;spacingLeft=3;spacingRight=3;rotatable=0;labelPosition=right;points=[];portConstraint=eastwest;" vertex="1" parent="ma_wL7EjjFO9Kif_n0pC-13">
          <mxGeometry y="52" width="410" height="8" as="geometry" />
        </mxCell>
        <mxCell id="ma_wL7EjjFO9Kif_n0pC-19" value="+ Frame(samples: int[][])" style="text;html=1;strokeColor=none;fillColor=none;align=left;verticalAlign=top;spacingLeft=4;spacingRight=4;whiteSpace=wrap;overflow=hidden;rotatable=0;points=[[0,0.5],[1,0.5]];portConstraint=eastwest;" vertex="1" parent="ma_wL7EjjFO9Kif_n0pC-13">
          <mxGeometry y="60" width="410" height="26" as="geometry" />
        </mxCell>
        <mxCell id="ma_wL7EjjFO9Kif_n0pC-27" value="+ getSamples(): int[][]" style="text;html=1;strokeColor=none;fillColor=none;align=left;verticalAlign=top;spacingLeft=4;spacingRight=4;whiteSpace=wrap;overflow=hidden;rotatable=0;points=[[0,0.5],[1,0.5]];portConstraint=eastwest;" vertex="1" parent="ma_wL7EjjFO9Kif_n0pC-13">
          <mxGeometry y="86" width="410" height="26" as="geometry" />
        </mxCell>
        <mxCell id="ma_wL7EjjFO9Kif_n0pC-20" value="+ getRMS(): int" style="text;html=1;strokeColor=none;fillColor=none;align=left;verticalAlign=top;spacingLeft=4;spacingRight=4;whiteSpace=wrap;overflow=hidden;rotatable=0;points=[[0,0.5],[1,0.5]];portConstraint=eastwest;" vertex="1" parent="ma_wL7EjjFO9Kif_n0pC-13">
          <mxGeometry y="112" width="410" height="26" as="geometry" />
        </mxCell>
        <mxCell id="ma_wL7EjjFO9Kif_n0pC-21" value="+ getDb(): int" style="text;html=1;strokeColor=none;fillColor=none;align=left;verticalAlign=top;spacingLeft=4;spacingRight=4;whiteSpace=wrap;overflow=hidden;rotatable=0;points=[[0,0.5],[1,0.5]];portConstraint=eastwest;" vertex="1" parent="ma_wL7EjjFO9Kif_n0pC-13">
          <mxGeometry y="138" width="410" height="26" as="geometry" />
        </mxCell>
        <mxCell id="ma_wL7EjjFO9Kif_n0pC-36" value="1" style="endArrow=none;startArrow=none;endFill=0;startFill=0;endSize=8;html=1;verticalAlign=bottom;labelBackgroundColor=none;strokeWidth=2;rounded=0;" edge="1" parent="1" source="ma_wL7EjjFO9Kif_n0pC-1" target="ma_wL7EjjFO9Kif_n0pC-13">
          <mxGeometry x="-0.9115" y="-20" width="160" relative="1" as="geometry">
            <mxPoint x="1000" y="920" as="sourcePoint" />
            <mxPoint x="1160" y="920" as="targetPoint" />
            <mxPoint x="-1" as="offset" />
          </mxGeometry>
        </mxCell>
        <mxCell id="ma_wL7EjjFO9Kif_n0pC-37" value="1..n" style="edgeLabel;html=1;align=center;verticalAlign=middle;resizable=0;points=[];" vertex="1" connectable="0" parent="ma_wL7EjjFO9Kif_n0pC-36">
          <mxGeometry x="0.8654" y="-18" relative="1" as="geometry">
            <mxPoint x="-8" y="-7" as="offset" />
          </mxGeometry>
        </mxCell>
        <mxCell id="ma_wL7EjjFO9Kif_n0pC-39" value="Component" style="swimlane;html=1;fontStyle=1;align=center;verticalAlign=top;childLayout=stackLayout;horizontal=1;startSize=26;horizontalStack=0;resizeParent=1;resizeLast=0;collapsible=1;marginBottom=0;swimlaneFillColor=#ffffff;rounded=0;shadow=0;comic=0;labelBackgroundColor=none;strokeWidth=1;fillColor=none;fontFamily=Verdana;fontSize=12" vertex="1" parent="1">
          <mxGeometry x="-210" y="430" width="360" height="140" as="geometry" />
        </mxCell>
        <mxCell id="ma_wL7EjjFO9Kif_n0pC-40" value="- title: string" style="text;html=1;strokeColor=none;fillColor=none;align=left;verticalAlign=top;spacingLeft=4;spacingRight=4;whiteSpace=wrap;overflow=hidden;rotatable=0;points=[[0,0.5],[1,0.5]];portConstraint=eastwest;" vertex="1" parent="ma_wL7EjjFO9Kif_n0pC-39">
          <mxGeometry y="26" width="360" height="26" as="geometry" />
        </mxCell>
        <mxCell id="ma_wL7EjjFO9Kif_n0pC-41" value="- view: HTML Container" style="text;html=1;strokeColor=none;fillColor=none;align=left;verticalAlign=top;spacingLeft=4;spacingRight=4;whiteSpace=wrap;overflow=hidden;rotatable=0;points=[[0,0.5],[1,0.5]];portConstraint=eastwest;" vertex="1" parent="ma_wL7EjjFO9Kif_n0pC-39">
          <mxGeometry y="52" width="360" height="26" as="geometry" />
        </mxCell>
        <mxCell id="ma_wL7EjjFO9Kif_n0pC-44" value="" style="line;html=1;strokeWidth=1;fillColor=none;align=left;verticalAlign=middle;spacingTop=-1;spacingLeft=3;spacingRight=3;rotatable=0;labelPosition=right;points=[];portConstraint=eastwest;" vertex="1" parent="ma_wL7EjjFO9Kif_n0pC-39">
          <mxGeometry y="78" width="360" height="8" as="geometry" />
        </mxCell>
        <mxCell id="ma_wL7EjjFO9Kif_n0pC-46" value="+ getTitle(): String" style="text;html=1;strokeColor=none;fillColor=none;align=left;verticalAlign=top;spacingLeft=4;spacingRight=4;whiteSpace=wrap;overflow=hidden;rotatable=0;points=[[0,0.5],[1,0.5]];portConstraint=eastwest;" vertex="1" parent="ma_wL7EjjFO9Kif_n0pC-39">
          <mxGeometry y="86" width="360" height="26" as="geometry" />
        </mxCell>
        <mxCell id="ma_wL7EjjFO9Kif_n0pC-45" value="+ getView(): HTML Container" style="text;html=1;strokeColor=none;fillColor=none;align=left;verticalAlign=top;spacingLeft=4;spacingRight=4;whiteSpace=wrap;overflow=hidden;rotatable=0;points=[[0,0.5],[1,0.5]];portConstraint=eastwest;" vertex="1" parent="ma_wL7EjjFO9Kif_n0pC-39">
          <mxGeometry y="112" width="360" height="26" as="geometry" />
        </mxCell>
        <mxCell id="ma_wL7EjjFO9Kif_n0pC-53" value="Home" style="swimlane;html=1;fontStyle=1;align=center;verticalAlign=top;childLayout=stackLayout;horizontal=1;startSize=26;horizontalStack=0;resizeParent=1;resizeLast=0;collapsible=1;marginBottom=0;swimlaneFillColor=#ffffff;rounded=0;shadow=0;comic=0;labelBackgroundColor=none;strokeWidth=1;fillColor=none;fontFamily=Verdana;fontSize=12" vertex="1" parent="1">
          <mxGeometry x="-210" y="710" width="360" height="170" as="geometry" />
        </mxCell>
        <mxCell id="ma_wL7EjjFO9Kif_n0pC-56" value="" style="line;html=1;strokeWidth=1;fillColor=none;align=left;verticalAlign=middle;spacingTop=-1;spacingLeft=3;spacingRight=3;rotatable=0;labelPosition=right;points=[];portConstraint=eastwest;" vertex="1" parent="ma_wL7EjjFO9Kif_n0pC-53">
          <mxGeometry y="26" width="360" height="8" as="geometry" />
        </mxCell>
        <mxCell id="ma_wL7EjjFO9Kif_n0pC-57" value="- init(): void" style="text;html=1;strokeColor=none;fillColor=none;align=left;verticalAlign=top;spacingLeft=4;spacingRight=4;whiteSpace=wrap;overflow=hidden;rotatable=0;points=[[0,0.5],[1,0.5]];portConstraint=eastwest;" vertex="1" parent="ma_wL7EjjFO9Kif_n0pC-53">
          <mxGeometry y="34" width="360" height="26" as="geometry" />
        </mxCell>
        <mxCell id="ma_wL7EjjFO9Kif_n0pC-58" value="- getPlotData(): string" style="text;html=1;strokeColor=none;fillColor=none;align=left;verticalAlign=top;spacingLeft=4;spacingRight=4;whiteSpace=wrap;overflow=hidden;rotatable=0;points=[[0,0.5],[1,0.5]];portConstraint=eastwest;" vertex="1" parent="ma_wL7EjjFO9Kif_n0pC-53">
          <mxGeometry y="60" width="360" height="26" as="geometry" />
        </mxCell>
        <mxCell id="ma_wL7EjjFO9Kif_n0pC-60" value="- onRender(): void" style="text;html=1;strokeColor=none;fillColor=none;align=left;verticalAlign=top;spacingLeft=4;spacingRight=4;whiteSpace=wrap;overflow=hidden;rotatable=0;points=[[0,0.5],[1,0.5]];portConstraint=eastwest;" vertex="1" parent="ma_wL7EjjFO9Kif_n0pC-53">
          <mxGeometry y="86" width="360" height="26" as="geometry" />
        </mxCell>
        <mxCell id="ma_wL7EjjFO9Kif_n0pC-62" value="- validateForm(): void" style="text;html=1;strokeColor=none;fillColor=none;align=left;verticalAlign=top;spacingLeft=4;spacingRight=4;whiteSpace=wrap;overflow=hidden;rotatable=0;points=[[0,0.5],[1,0.5]];portConstraint=eastwest;" vertex="1" parent="ma_wL7EjjFO9Kif_n0pC-53">
          <mxGeometry y="112" width="360" height="26" as="geometry" />
        </mxCell>
        <mxCell id="ma_wL7EjjFO9Kif_n0pC-63" value="- onDownload(): void" style="text;html=1;strokeColor=none;fillColor=none;align=left;verticalAlign=top;spacingLeft=4;spacingRight=4;whiteSpace=wrap;overflow=hidden;rotatable=0;points=[[0,0.5],[1,0.5]];portConstraint=eastwest;" vertex="1" parent="ma_wL7EjjFO9Kif_n0pC-53">
          <mxGeometry y="138" width="360" height="26" as="geometry" />
        </mxCell>
        <mxCell id="ma_wL7EjjFO9Kif_n0pC-59" value="" style="html=1;labelBackgroundColor=#ffffff;jettySize=auto;orthogonalLoop=1;fontSize=14;rounded=0;jumpStyle=gap;edgeStyle=orthogonalEdgeStyle;startArrow=none;endArrow=block;endFill=0;strokeWidth=1;" edge="1" parent="1" source="ma_wL7EjjFO9Kif_n0pC-53" target="ma_wL7EjjFO9Kif_n0pC-39">
          <mxGeometry width="48" height="48" relative="1" as="geometry">
            <mxPoint x="-240" y="678" as="sourcePoint" />
            <mxPoint x="-192" y="630" as="targetPoint" />
          </mxGeometry>
        </mxCell>
        <mxCell id="ma_wL7EjjFO9Kif_n0pC-66" value="" style="endArrow=classic;html=1;rounded=0;" edge="1" parent="1" source="ma_wL7EjjFO9Kif_n0pC-53" target="c4K4P2OYtK1ANyOnssvS-6">
          <mxGeometry width="50" height="50" relative="1" as="geometry">
            <mxPoint x="-150" y="690" as="sourcePoint" />
            <mxPoint x="-100" y="640" as="targetPoint" />
          </mxGeometry>
        </mxCell>
        <mxCell id="ma_wL7EjjFO9Kif_n0pC-67" value="" style="endArrow=classic;html=1;rounded=0;" edge="1" parent="1" source="ma_wL7EjjFO9Kif_n0pC-53" target="ma_wL7EjjFO9Kif_n0pC-1">
          <mxGeometry width="50" height="50" relative="1" as="geometry">
            <mxPoint x="-20" y="481" as="sourcePoint" />
            <mxPoint x="270" y="444" as="targetPoint" />
          </mxGeometry>
        </mxCell>
      </root>
    </mxGraphModel>
  </diagram>
  <diagram id="zAVa7AMhgyVqMyaeUAfR" name="Seite-2">
    <mxGraphModel dx="1426" dy="755" grid="1" gridSize="10" guides="1" tooltips="1" connect="1" arrows="1" fold="1" page="1" pageScale="1" pageWidth="827" pageHeight="1169" math="0" shadow="0">
      <root>
        <mxCell id="0" />
        <mxCell id="1" parent="0" />
      </root>
    </mxGraphModel>
  </diagram>
</mxfile>
